<svg id="Layer_1" enable-background="new 0 0 512 512" height="512" viewBox="0 0 512 512" width="512" xmlns="http://www.w3.org/2000/svg"><g><path d="m301 85.295v-25.545h-90v25.545c0 23.545-8.308 46.336-23.461 64.357-30.059 35.748-46.539 80.956-46.539 127.661v224.687l40-27 34 27 51-30 25 18 35-15 45 27v-224.687c0-46.706-16.48-91.913-46.539-127.661-15.153-18.021-23.461-40.811-23.461-64.357z" fill="#b8ecbc"/><path d="m211 10h90v50h-90z" fill="#ffda8f"/><g><path d="m368.4 205.95c-1.198-3.287-3.899-9.885-3.931-9.956-8.092-19.111-18.942-36.83-32.359-52.774-13.61-16.2-21.11-36.77-21.11-57.92v-75.3c0-5.523-4.477-10-10-10h-90c-5.523 0-10 4.477-10 10v75.3c0 21.15-7.5 41.72-21.12 57.92-15.71 18.68-27.92 39.79-36.28 62.73s-12.6 46.95-12.6 71.36v224.69c0 3.71 2.03 7.09 5.31 8.83 1.44.77 3.06 1.17 4.69 1.17 2 0 3.93-.59 5.59-1.71l33.93-22.9 28.26 22.44c1.76 1.4 3.97 2.17 6.22 2.17 1.78 0 3.53-.48 5.07-1.38l45.38-26.7 19.71 14.2c2.81 2.02 6.59 2.44 9.78 1.07l30.3-12.98 40.62 24.36c1.55.94 3.33 1.43 5.14 1.43 1.72 0 3.43-.45 4.93-1.3 3.13-1.77 5.07-5.1 5.07-8.7v-103.4c0-5.52-4.49-10-10-10s-10 4.48-10 10v85.74l-26.97-16.191-14.745-36.863c-2.051-5.128-7.873-7.623-12.999-5.571-5.128 2.051-7.622 7.871-5.571 12.999l12.376 30.94-20.831 8.927-17.945-12.919-20.53-55.341 20.369-46.292c2.224-5.055-.071-10.956-5.126-13.181-5.056-2.223-10.956.071-13.181 5.126l-22 50c-1.046 2.378-1.126 5.07-.222 7.505l20.087 54.148-37.862 22.273-20.399-16.195 22.061-25.104c3.646-4.148 3.238-10.467-.911-14.113s-10.467-3.238-14.113.911l-28.153 32.036-23.335 15.745v-205.87c0-26.685 5.707-52.92 16.473-76.976l31.578-5.055 25.586 9.138c1.111.396 2.246.585 3.363.585 4.024 0 7.809-2.447 9.334-6.413l20-52c1.982-5.155-.589-10.941-5.744-12.923-5.153-1.983-10.94.588-12.923 5.744l-16.496 42.889-18.808-6.717c-1.583-.565-3.283-.722-4.944-.457l-19.218 3.076c4.769-7.713 10.101-15.111 15.988-22.112 16.641-19.789 25.811-44.939 25.811-70.789v-15.3h70v15.3c0 25.85 9.17 51 25.81 70.79 8.828 10.502 16.426 21.885 22.711 33.91h-24.97l-24.011-27.568c-3.626-4.164-9.942-4.6-14.109-.973-4.165 3.627-4.6 9.944-.973 14.109l22.857 26.244-10.492 24.212c-2.196 5.067.132 10.956 5.2 13.152 1.295.561 2.644.827 3.971.827 3.865 0 7.546-2.254 9.181-6.026l10.39-23.977h31.966c8.169 21.346 12.469 44.158 12.469 67.31v31.29c0 5.51 4.49 10 10 10 5.52 0 10-4.49 10-10 0-.01 0-.01 0-.02v-31.27c0-24.41-4.24-48.42-12.6-71.36zm-77.4-185.95v29.75h-70v-29.75z"/><circle cx="371" cy="353.6" r="10"/><path d="m187.402 352.318c-4.243-3.536-10.548-2.962-14.084 1.28s-2.962 10.548 1.28 14.084l24 20c1.87 1.558 4.139 2.318 6.396 2.318 2.865 0 5.71-1.226 7.688-3.599 3.536-4.243 2.962-10.548-1.28-14.084z"/><path d="m262.961 290.879 3-34c.485-5.501-3.581-10.355-9.083-10.84-5.508-.489-10.355 3.582-10.84 9.083l-2.416 27.385-46.677 14.972c-5.259 1.687-8.155 7.317-6.468 12.576 1.361 4.244 5.29 6.949 9.52 6.949 1.012 0 2.042-.155 3.057-.481l53-17c3.832-1.23 6.553-4.636 6.907-8.644z"/><path d="m317.317 282.039-16 28c-2.74 4.795-1.074 10.904 3.721 13.644 1.565.894 3.27 1.319 4.952 1.319 3.472 0 6.846-1.811 8.692-5.041l16-28c2.74-4.795 1.074-10.904-3.721-13.644-4.795-2.738-10.903-1.073-13.644 3.722z"/></g></g></svg>