<svg height="512" viewBox="0 0 60 52" width="512" xmlns="http://www.w3.org/2000/svg"><g id="Page-1" fill="none" fill-rule="evenodd"><g id="029---Duck" fill-rule="nonzero" transform="translate(0 -1)"><path id="Shape" d="m59 38c0 6.94-3.7 10.46-7.14 12.24-2.3744865 1.1846354-4.9965551 1.7878825-7.65 1.76h-23.92s-10.92-1-16.88-14c-4.52-9.87-1.6-16.86.06-19.65.17449357-.2946463.48924226-.4777919.83162668-.4839059s.66347127.1656773.84837332.4539059c2.1361312 3.2745527 5.0315576 5.9847267 8.44 7.9-.48 3.17.09 7.21 3.41 11.78 3.4168962 4.4178918 8.3861659 7.3708536 13.9 8.26 4.42.81 9.82.68 13.59-2.08 2.2083101-1.5471042 3.316713-4.2361519 2.84-6.89-.75-3.29-3.85-4.77-6.97-5-2.4752732-.1445923-4.9580112.0949109-7.36.71-4.68 1.17-8.3-.72-10.89-3.48l.14.03c2.5644767.5556445 5.0953248-1.0674967 5.66-3.63-4.6417367-3.8263282-6.1917636-10.2621807-3.8010313-15.7822264 2.3907324-5.52004579 8.1453267-8.79226607 14.1116209-8.024255 5.9662941.76801108 10.704587 5.39092805 11.6194104 11.3364814.1090951.677833.1626065 1.3634488.16 2.05.0040576 3.2689699-1.1793038 6.4281538-3.33 8.89l.05.04c4.27.97 12.28 4.07 12.28 13.57z" fill="#ffdc00"/><path id="Shape" d="m33 33c1.4768741-.3620201 2.982635-.5939073 4.5-.693-.047 0-.093-.014-.139-.017-2.4756056-.1446961-4.9586889.0948079-7.361.71-.4130895.1015272-.8313668.1806427-1.253.237 1.4193167.2047158 2.865216.1241425 4.253-.237z" fill="#fec108"/><path id="Shape" d="m46.72 24.43-.05-.04c2.1506962-2.4618462 3.3340576-5.6210301 3.33-8.89.0026065-.6865512-.0509049-1.372167-.16-2.05-1.0780056-7.17215336-7.6488255-12.1977047-14.853-11.36 6.0656872.66976814 10.9263046 5.32821861 11.853 11.36.1090951.677833.1626065 1.3634488.16 2.05.0040576 3.2689699-1.1793038 6.4281538-3.33 8.89l.05.04c4.27.97 12.28 4.07 12.28 13.57 0 6.94-3.7 10.46-7.14 12.24-2.3744865 1.1846354-4.9965551 1.7878825-7.65 1.76h3c2.6534449.0278825 5.2755135-.5753646 7.65-1.76 3.44-1.78 7.14-5.3 7.14-12.24 0-9.5-8.01-12.6-12.28-13.57z" fill="#fec108"/><path id="Shape" d="m10.59 26.22c-.48 3.17.09 7.21 3.41 11.78 3.4168962 4.4178918 8.3861659 7.3708536 13.9 8.26 2.0190235.3801505 4.0773548.5087962 6.128.383-1.0492785-.0661798-2.0937516-.1940676-3.128-.383-5.5138341-.8891464-10.4831038-3.8421082-13.9-8.26-3.32-4.57-3.89-8.61-3.41-11.78-3.4084424-1.9152733-6.3038688-4.6254473-8.44-7.9-.18490205-.2882286-.5059889-.4600199-.84837332-.4539059s-.65713311.1892596-.83162668.4839059c-.179.3-.374.66-.571 1.057 2.05582871 2.7867691 4.67659 5.1083458 7.691 6.813z" fill="#fec108"/><path id="Shape" d="m46.67 24.39c-.02.01-.03.03-.04.04" fill="#ffdc00"/><path id="Shape" d="m44.49 44.18c-3.77 2.76-9.17 2.89-13.59 2.08-5.5138341-.8891464-10.4831038-3.8421082-13.9-8.26-3.32-4.57-3.89-8.61-3.41-11.78.2919984-1.8924831.9656365-3.7058626 1.98-5.33.2015894-.3428467.5871864-.533641.9820333-.4859122.394847.0477288.723876.3249063.8379667.7059122.9158632 3.122583 2.5260217 5.9976218 4.71 8.41h.01c2.59 2.76 6.21 4.65 10.89 3.48 2.4019888-.6150891 4.8847268-.8545923 7.36-.71 3.12.23 6.22 1.71 6.97 5 .476713 2.6538481-.6316899 5.3428958-2.84 6.89z" fill="#ffeb3a"/><path id="Shape" d="m19.1 29.52h.01c2.3755415 2.7911174 6.0024742 4.1900288 9.637 3.717-2.5706319-.4482596-4.91169-1.7593509-6.637-3.717h-.01c-2.1839783-2.4123782-3.7941368-5.287417-4.71-8.41-.1140907-.3810059-.4431197-.6581834-.8379667-.7059122-.3948469-.0477288-.7804439.1430655-.9820333.4859122-.284405.4687683-.5427957.9528336-.774 1.45.9470956 2.6537654 2.4098432 5.0939437 4.304 7.18z" fill="#fdd834"/><path id="Shape" d="m47.33 37.29c-.75-3.29-3.85-4.77-6.97-5-.9528912-.0612317-1.9089038-.0555511-2.861.017 3.072.264 6.092 1.742 6.831 4.983.476713 2.6538481-.6316899 5.3428958-2.84 6.89-2.2061287 1.5065751-4.7925023 2.3602656-7.462 2.463 3.658.229 7.547-.329 10.462-2.463 2.2083101-1.5471042 3.316713-4.2361519 2.84-6.89z" fill="#fdd834"/><path id="Shape" d="m49.84 13.45c2.4617951 1.0679428 5.1683674 1.4437788 7.828 1.087.4438255-.0586616.8725616.1848064 1.049559.596017.1769973.4112107.0591234.889956-.288559 1.171983-1.65932 1.1738308-3.490789 2.082987-5.429 2.695 1.6589657.479711 3.3648289.7791087 5.088.893.4339486.0346851.7956006.3461235.89429.7701222.0986893.4239986-.0882613.863129-.46229 1.0858778-3.272 2.082-9.024 1.4-10.82 1.3" fill="#ff5722"/><path id="Shape" d="m54.186 14.583c-1.5039665-.1194866-2.97512-.5030156-4.346-1.133l-.2.9c1.4967662.2916335 3.0272607.3700773 4.546.233z" fill="#d84315"/><path id="Shape" d="m58.088 19.893c-1.7231711-.1138913-3.4290343-.413289-5.088-.893 1.938211-.612013 3.76968-1.5211692 5.429-2.695.3476824-.282027.4655563-.7607723.288559-1.171983-.1769974-.4112106-.6057335-.6546786-1.049559-.596017-.8037485.0933803-1.613148.1291383-2.422.107.3040099.1492726.5106156.4435945.5477052.7802378.0370895.3366432-.1004849.6688851-.3647052.8807622-1.65932 1.1738308-3.490789 2.082987-5.429 2.695 1.6589657.479711 3.3648289.7791087 5.088.893.4339486.0346851.7956006.3461235.89429.7701222.0986893.4239986-.0882613.863129-.46229 1.0858778-1.7001794.9322627-3.604106 1.4306566-5.543 1.451 2.526.119 6.179.058 8.543-1.446.3785464-.2209915.5690501-.6627496.4699342-1.0897281s-.4647454-.7396397-.9019342-.7712719z" fill="#d84315"/><circle id="Oval" cx="42.5" cy="13.5" fill="#f5f5f5" r="2.5"/><g fill="#000"><path id="Shape" d="m60 38c0-8.627-6.217-12.308-10.6-13.834.653.038 1.387.071 2.183.071 2.447 0 5.363-.3 7.472-1.645.7394302-.459682 1.096517-1.3449177.883-2.189-.1993473-.8316316-.9131951-1.4391702-1.766-1.503-.528-.044-1.138-.106-1.769-.191.9369482-.4442162 1.8245097-.98587 2.648-1.616.7018752-.5480643.9479909-1.4993015.6-2.319-.3401562-.8383182-1.2027553-1.3419117-2.1-1.226-2.3060418.2861378-4.6470776.0081785-6.822-.81-1.1956285-6.19537834-6.2616639-10.90561522-12.5275645-11.64772688-6.2659006-.74211165-12.2920717 2.65440257-14.9018395 8.39908289-2.6097679 5.74468029-1.2035367 12.51768259 3.477404 16.74864399-.2604342.7208458-.746067 1.3386689-1.385 1.762-.8269815.5490638-1.8335147.7588925-2.811.586-1.9542154-2.2465023-3.3983595-4.8898353-4.233-7.748-.210524-.7548708-.8518849-1.3107956-1.629-1.412-.7908069-.1098658-1.5721726.25613-1.994.934-.8177675 1.3169047-1.4329716 2.7492348-1.825 4.249-2.755405-1.7619008-5.10688899-4.0868028-6.9-6.822-.36245249-.582538-1.00399871-.9321617-1.69-.921-.69805558.0038873-1.34308887.373074-1.7.973-1.62 2.722-4.873 10.177-.11 20.578 3.228 7.038 7.829 10.692 11.547 12.583h-5.047c-.55228475 0-1 .4477153-1 1s.44771525 1 1 1h50c.5522847 0 1-.4477153 1-1s-.4477153-1-1-1h-6.447c3.453-1.853 7.447-5.593 7.447-13zm-2.191-22.479c-1.5614229 1.0961028-3.2813086 1.9469404-5.1 2.523-.4159025.1276051-.70159.5094578-.7066138.9444667-.0050237.4350088.2717691.8233573.6846138.9605333 1.7289113.5008431 3.5050592.8212199 5.3.956-2.313 1.473-6.27 1.4-8.612 1.255 1.0665088-2.0580912 1.6237659-4.3419882 1.625-6.66 0-.184-.021-.362-.028-.544 2.2145338.6637378 4.5435511.8562044 6.837.565zm-41.385 5.861v.006c1.555 5.418 7.068 15.019 16.816 12.583 2.2986048-.592234 4.6753998-.8229973 7.045-.684 1.218.091 5.256.666 6.069 4.231.3969934 2.2633059-.5617374 4.5503515-2.454 5.854-4.191 3.073-10.358 2.357-12.816 1.906-5.2603478-.8478315-10.0035266-3.6587894-13.273-7.866-5.321-7.312-3.154-13.162-1.387-16.03zm34.976 27.968c-2.2327665 1.1119898-4.6978047 1.6775227-7.192 1.65h-23.867c-.706-.084-10.541-1.473-16.022-13.417-4.369-9.54-1.449-16.27-.013-18.728 2.10528856 3.2114665 4.9121532 5.9031023 8.209 7.872-.342 3.282.385 7.336 3.676 11.861 3.5727497 4.6210421 8.7653781 7.7148194 14.53 8.657 1.5988424.2959525 3.2210088.4478947 4.847.454 3.3780783.1229512 6.7083077-.8271426 9.513-2.714 2.5326921-1.7773853 3.7934911-4.8705454 3.225-7.912-.754-3.308-3.7-5.469-7.87-5.781-2.5821037-.1528433-5.172284.0961217-7.678.738-2.7972808.7518938-5.7849682.1739054-8.1-1.567.6550223-.1590614 1.27778-.4296785 1.841-.8 1.2018796-.7926674 2.0465761-2.0234699 2.354-3.43l.015-.05c.005-.023.016-.045.021-.068.0025026-.044298.0025026-.088702 0-.133.0075039-.0694646.0075039-.1395354 0-.209-.0120221-.0618447-.0297651-.1224386-.053-.181-.0192329-.0604848-.0440045-.1190663-.074-.175-.0380631-.0585774-.0823178-.1128899-.132-.162-.0254934-.0350789-.0532174-.0684812-.083-.1-3.9288209-3.2405219-5.4988668-8.5405781-3.9689596-13.3981495 1.5299071-4.85757136 5.8538357-8.30130205 10.9305712-8.70549607 5.0767354-.40419402 9.8910962 2.31197426 12.1703474 6.86627222 2.2792511 4.55429795 1.5676167 10.03601445-1.798959 13.85737335-.3651477.4140021-.3257583 1.045576.088 1.411.148216.1239953.3298741.2012522.522.222h.008c4.3.976 11.5 3.909 11.5 12.6.002 5.264-2.218 9.083-6.598 11.342z"/><path id="Shape" d="m42.5 10c-1.9329966 0-3.5 1.5670034-3.5 3.5s1.5670034 3.5 3.5 3.5 3.5-1.5670034 3.5-3.5-1.5670034-3.5-3.5-3.5zm0 5c-.8284271 0-1.5-.6715729-1.5-1.5s.6715729-1.5 1.5-1.5 1.5.6715729 1.5 1.5-.6715729 1.5-1.5 1.5z"/><path id="Shape" d="m32.5 5.792c-2.65684 1.10347942-4.7493678 3.24186586-5.795 5.922-1.0626599 2.8325461-.9081437 5.978234.427 8.693.164888.3511898.518028.5753129.906.575.1466466.0003236.2915114-.0321343.424-.095.4997404-.2347915.7146165-.8301775.48-1.33-1.1001951-2.2201684-1.2351566-4.7960142-.373-7.119.8477423-2.1732125 2.5451142-3.90669881 4.7-4.8.5011002-.21773733.7346844-.79735304.5245841-1.30170296s-.7861009-.74671176-1.2935841-.54429704z"/><path id="Shape" d="m5 52c0-.5522847-.44771525-1-1-1h-3c-.55228475 0-1 .4477153-1 1s.44771525 1 1 1h3c.55228475 0 1-.4477153 1-1z"/></g></g></g></svg>