<svg id="Layer_1" enable-background="new 0 0 512 512" height="512" viewBox="0 0 512 512" width="512" xmlns="http://www.w3.org/2000/svg"><g><g><path d="m7.5 424.901v-173.126c0-5.337 2.813-10.278 7.402-13.002l23.003-13.656c19.292-11.453 43.262-11.613 62.705-.418l2.189 1.26c18.301 10.537 40.852 10.422 59.046-.299.303-.178.606-.357.908-.535 19.173-11.295 42.962-11.339 62.175-.114.006.004.009.005.009.005 19.19 11.213 42.935 11.213 62.125 0l36.185-23.3c13.543-8.721 17.776-26.584 9.586-40.455-8.833-14.959-28.49-19.304-42.805-9.462l-25.897 17.804c-3.882 2.669-8.964-1.021-7.627-5.539l5.235-17.694c15.575-52.647 63.933-88.771 118.835-88.771 68.442 0 123.926 55.484 123.926 123.926v243.375h-497z" fill="#90d8f9"/><path d="m504.5 181.53v243.37h-30v-243.37c0-34.23-13.87-65.21-36.3-87.63-19.09-19.1-44.38-31.99-72.6-35.39 4.92-.6 9.92-.91 14.97-.91 34.23 0 65.21 13.87 87.63 36.3 22.43 22.42 36.3 53.4 36.3 87.63z" fill="#75cef9"/><path d="m504.5 424.901v20c0 5.523-4.477 10-10 10h-477c-5.523 0-10-4.477-10-10v-20z" fill="#ffe07d"/><path d="m443.548 375.099 23.566 12.403c4.056 2.135 8.637-1.872 7.013-6.157-4.106-10.831-4.106-21.661 0-32.492 1.625-4.286-2.957-8.292-7.013-6.157l-23.566 12.403z" fill="#ffa95f"/><path d="m504.5 424.9v20c0 5.52-4.48 10-10 10h-30c5.52 0 10-4.48 10-10v-20z" fill="#ffd064"/><path d="m394.27 395.099h7.278c18.742 0 36.245-9.367 46.641-24.961 2.034-3.051 2.034-7.026 0-10.077-10.396-15.595-27.899-24.961-46.641-24.961h-7.278c-14.196 0-27.452 7.095-35.326 18.906-4.479 6.718-4.479 15.47 0 22.188 7.874 11.811 21.13 18.905 35.326 18.905z" fill="#ffc269"/><path d="m449.71 365.1c0 1.76-.51 3.52-1.52 5.04-10.4 15.59-27.9 24.96-46.64 24.96h-7.28c-3.6 0-7.14-.46-10.54-1.34 13.95-3.11 26.36-11.48 34.46-23.62 1.01-1.52 1.52-3.28 1.52-5.04s-.51-3.52-1.52-5.04c-5.2-7.8-12.17-14.04-20.19-18.33-4.48-2.4-9.29-4.19-14.29-5.3 3.41-.87 6.95-1.33 10.56-1.33h7.28c9.37 0 18.43 2.34 26.45 6.63s14.99 10.53 20.19 18.33c1.01 1.52 1.52 3.28 1.52 5.04z" fill="#ffa95f"/><path d="m355.588 365.099c0 3.87 1.12 7.74 3.36 11.09 3.94 5.91 9.22 10.64 15.29 13.89.27.14.54.29.82.42 1.58-1.19 2.98-2.6 4.2-4.19 4.18-5.43 6.29-12.93 6.29-21.21 0-10.71-3.52-20.11-10.49-25.4-6.42 3.25-12 8.14-16.11 14.31-2.24 3.35-3.36 7.22-3.36 11.09z" fill="#ffa95f"/><path d="m68.5 335.099-23.566 12.403c-4.056 2.135-8.637-1.872-7.013-6.157 4.106-10.831 4.106-21.661 0-32.492-1.625-4.286 2.957-8.292 7.013-6.157l23.566 12.403z" fill="#b3e59f"/><path d="m117.778 355.099h-7.278c-18.742 0-36.245-9.367-46.641-24.961-2.034-3.051-2.034-7.026 0-10.077 10.396-15.595 27.899-24.961 46.641-24.961h7.278c14.196 0 27.452 7.095 35.326 18.906 4.479 6.718 4.479 15.47 0 22.188-7.874 11.811-21.131 18.905-35.326 18.905z" fill="#ccf49f"/><path d="m156.46 325.1c0 3.87-1.12 7.74-3.36 11.09-3.94 5.91-9.22 10.63-15.29 13.88s-12.93 5.03-20.03 5.03h-7.28c-4.14 0-8.22-.46-12.18-1.34 3.31-.84 6.5-2.09 9.49-3.69 6.07-3.25 11.35-7.97 15.29-13.88 2.24-3.35 3.36-7.22 3.36-11.09s-1.12-7.74-3.36-11.09c-5.87-8.82-14.74-15-24.76-17.58 3.95-.87 8.03-1.33 12.16-1.33h7.28c14.19 0 27.45 7.09 35.32 18.91 2.24 3.35 3.36 7.22 3.36 11.09z" fill="#b3e59f"/><path d="m156.46 325.099c0 3.87-1.12 7.74-3.36 11.09-3.94 5.91-9.22 10.64-15.29 13.89-.27.14-.54.29-.82.42-1.58-1.19-2.98-2.6-4.2-4.19-4.18-5.43-6.29-12.93-6.29-21.21 0-10.71 3.52-20.11 10.49-25.4 6.42 3.25 12 8.14 16.11 14.31 2.24 3.35 3.36 7.22 3.36 11.09z" fill="#95d6a4"/><path d="m145 162.099c-28.995 0-52.5-23.505-52.5-52.5 0-28.995 23.505-52.5 52.5-52.5 28.995 0 52.5 23.505 52.5 52.5 0 28.995-23.505 52.5-52.5 52.5z" fill="#ffe07d"/><path d="m197.5 109.6c0 14.5-5.88 27.62-15.38 37.12s-22.62 15.38-37.12 15.38c-5.21 0-10.25-.76-15-2.18 8.47-2.52 16.04-7.12 22.12-13.2 9.5-9.5 15.38-22.62 15.38-37.12s-5.88-27.62-15.38-37.12c-6.08-6.08-13.65-10.68-22.12-13.2 4.75-1.42 9.79-2.18 15-2.18 14.5 0 27.62 5.88 37.12 15.38s15.38 22.62 15.38 37.12z" fill="#ffd064"/><path d="m185.5 177.099h-173c-2.761 0-5-2.239-5-5 0-13.807 11.193-25 25-25h2.781c6.03 0 11.312-4.044 12.885-9.865 4.328-16.013 18.855-27.135 35.442-27.135h30.783c16.587 0 31.114 11.122 35.442 27.135 1.573 5.822 6.855 9.865 12.885 9.865h2.781c13.807 0 25 11.193 25 25 .001 2.762-2.238 5-4.999 5z" fill="#faf2f3"/><path d="m190.5 172.1c0 1.38-.56 2.63-1.46 3.54-.91.9-2.16 1.46-3.54 1.46h-30c1.38 0 2.63-.56 3.54-1.46.9-.91 1.46-2.16 1.46-3.54 0-13.81-11.19-25-25-25h-2.78c-3.02 0-5.84-1.01-8.11-2.75s-3.99-4.21-4.78-7.12c-4.32-16.01-18.85-27.13-35.44-27.13h30c16.59 0 31.12 11.12 35.44 27.13.79 2.91 2.51 5.38 4.78 7.12s5.09 2.75 8.11 2.75h2.78c13.81 0 25 11.19 25 25z" fill="#f0e5e0"/><path d="m382 178.5c0 15.16-6.15 28.9-16.09 38.83-9.93 9.94-23.67 16.09-38.83 16.09h-70.41c10.51-.11 20.99-2.92 30.39-8.4l36.19-23.3c13.54-8.73 17.77-26.59 9.58-40.46-5.62-9.52-15.63-14.74-25.85-14.74-5.84 0-11.75 1.7-16.95 5.28l-25.9 17.8c-1.48 1.02-3.13 1.11-4.53.59l27.73-28.93c23.79-24.83 64.25-22.07 84.45 5.76 3.32 4.58 5.88 9.62 7.6 14.93s2.62 10.89 2.62 16.55z" fill="#75cef9"/></g><g><circle cx="457.5" cy="302.484" r="10"/><circle cx="165.5" cy="387.484" r="10"/><circle cx="175" cy="269.401" r="10"/><circle cx="337.5" cy="287.484" r="10"/><circle cx="288.5" cy="387.484" r="10"/><circle cx="240.5" cy="322.484" r="10"/><path d="m504.5 240.923c4.143 0 7.5-3.358 7.5-7.5v-51.898c0-72.468-58.958-131.426-131.427-131.426-28.568 0-55.766 9.037-78.653 26.134-22.888 17.097-39.269 40.614-47.374 68.009l-5.234 17.694c-1.522 5.146.3 10.507 4.641 13.661 4.341 3.152 10.003 3.226 14.427.186l25.896-17.804c5.191-3.569 11.438-4.787 17.591-3.426 6.151 1.36 11.304 5.097 14.508 10.521 6.166 10.444 3.009 23.77-7.188 30.336l-36.044 23.209c-16.803 9.753-37.641 9.727-54.422-.079-.009-.005-.018-.01-.027-.016-21.536-12.575-48.26-12.522-69.754.141l-.904.533c-15.835 9.332-35.567 9.433-51.496.261l-2.189-1.26c-21.759-12.528-48.687-12.349-70.276.468l-23.002 13.656c-6.83 4.054-11.073 11.508-11.073 19.452v193.126c0 9.649 7.851 17.5 17.5 17.5h477c9.649 0 17.5-7.851 17.5-17.5v-176.478c0-4.142-3.357-7.5-7.5-7.5s-7.5 3.358-7.5 7.5v148.978h-393c-4.142 0-7.5 3.358-7.5 7.5s3.358 7.5 7.5 7.5h393v12.5c0 1.378-1.121 2.5-2.5 2.5h-477c-1.378 0-2.5-1.122-2.5-2.5v-12.5h54c4.142 0 7.5-3.358 7.5-7.5s-3.358-7.5-7.5-7.5h-54v-165.626c0-2.676 1.43-5.187 3.731-6.553l23.002-13.656c16.939-10.055 38.064-10.195 55.134-.368l2.189 1.26c20.6 11.861 46.118 11.731 66.601-.34l.903-.532c16.818-9.907 37.733-9.945 54.585-.1.007.004.014.008.021.012 10.619 6.202 22.509 9.334 34.414 9.406.121.006.24.018.362.018h71.138c34.419 0 62.421-28.002 62.421-62.421 0-12.979-4.03-25.39-11.654-35.892-10.937-15.066-27.861-24.433-46.435-25.7-18.58-1.276-36.615 5.714-49.497 19.156l-13.462 14.048.478-1.617c14.527-49.104 60.438-83.398 111.645-83.398 64.195.001 116.424 52.23 116.424 116.427v51.898c0 4.142 3.357 7.5 7.5 7.5zm-174.11-109.048c14.127.964 27 8.088 35.317 19.547 5.752 7.923 8.793 17.288 8.793 27.08 0 26.147-21.272 47.42-47.421 47.42h-27.571l27.801-17.901c17-10.947 22.264-33.161 11.983-50.574-5.263-8.914-14.079-15.307-24.187-17.542-4.633-1.025-9.387-1.131-14.002-.392 8.592-5.616 18.831-8.351 29.287-7.638z"/><path d="m477.739 337.766c-3.933-3.48-9.473-4.153-14.118-1.707l-17.881 9.411c-11.723-11.359-27.486-17.871-44.192-17.871h-7.278c-16.74 0-32.279 8.316-41.566 22.246-6.178 9.267-6.178 21.242 0 30.509 9.287 13.929 24.826 22.246 41.566 22.246h7.278c16.706 0 32.469-6.512 44.192-17.871l17.881 9.411c1.858.978 3.859 1.458 5.846 1.458 2.975 0 5.913-1.077 8.271-3.164 3.918-3.466 5.253-8.862 3.401-13.746-3.466-9.143-3.466-18.032 0-27.175 1.852-4.885.517-10.281-3.4-13.747zm-112.555 20.4c2.362-3.542 5.307-6.558 8.655-8.972 2.709 3.925 4.209 9.481 4.209 15.905 0 6.36-1.503 11.943-4.225 15.893-3.341-2.412-6.281-5.423-8.639-8.96-2.808-4.211-2.808-9.654 0-13.866zm36.364 29.433h-7.278c-2.202 0-4.374-.206-6.493-.605 3.46-6.093 5.271-13.565 5.271-21.895 0-8.394-1.825-15.861-5.255-21.899 2.114-.397 4.281-.601 6.477-.601h7.278c16.271 0 31.374 8.083 40.4 21.622.355.533.355 1.222 0 1.756-9.026 13.539-24.129 21.622-40.4 21.622zm63.663-9.573-9.91-5.216c2.548-4.835 2.548-10.587 0-15.422l9.91-5.216c-2.218 8.6-2.218 17.254 0 25.854z"/><path d="m110.5 362.599h7.278c16.741 0 32.28-8.316 41.566-22.246 6.178-9.267 6.178-21.242 0-30.508-9.286-13.93-24.825-22.246-41.566-22.246h-7.278c-16.706 0-32.469 6.512-44.193 17.87l-17.882-9.411c-4.642-2.442-10.184-1.772-14.117 1.708-3.917 3.467-5.252 8.862-3.401 13.746 3.466 9.143 3.466 18.032 0 27.175-1.852 4.884-.517 10.28 3.401 13.747 2.359 2.087 5.296 3.164 8.272 3.164 1.985 0 3.987-.479 5.845-1.458l17.881-9.411c11.725 11.359 27.488 17.87 44.194 17.87zm36.364-30.566c-2.358 3.537-5.298 6.548-8.639 8.96-2.72-3.943-4.225-9.529-4.225-15.894 0-6.401 1.509-11.971 4.216-15.901 3.345 2.413 6.288 5.427 8.648 8.967 2.808 4.213 2.808 9.656 0 13.868zm-36.364-29.434h7.278c2.204 0 4.377.207 6.498.606-3.436 6.053-5.276 13.529-5.276 21.894 0 8.333 1.813 15.807 5.27 21.895-2.119.399-4.291.605-6.492.605h-7.278c-16.271 0-31.375-8.083-40.401-21.623-.355-.533-.355-1.222 0-1.756 9.026-13.538 24.129-21.621 40.401-21.621zm-63.663 35.427c2.218-8.599 2.217-17.254 0-25.853l9.909 5.215c-2.549 4.835-2.549 10.587 0 15.422z"/><path d="m12.5 184.599h173c6.893 0 12.5-5.608 12.5-12.5 0-8.519-3.3-16.279-8.682-22.081 10.034-10.993 15.682-25.341 15.682-40.419 0-33.084-26.916-60-60-60-30.715 0-56.099 23.204-59.578 53h-1.813c-19.931 0-37.482 13.438-42.683 32.678-.688 2.544-3.009 4.322-5.645 4.322h-2.781c-17.92 0-32.5 14.58-32.5 32.5 0 6.893 5.607 12.5 12.5 12.5zm132.5-120c24.813 0 45 20.187 45 45 0 12.081-4.835 23.539-13.354 31.97-3.478-1.274-7.232-1.97-11.146-1.97h-2.781c-2.636 0-4.958-1.777-5.645-4.322-5.2-19.24-22.752-32.678-42.683-32.678h-13.844c3.373-21.5 22.021-38 44.453-38zm-112.5 90h2.781c9.398 0 17.674-6.336 20.125-15.408 3.436-12.713 15.033-21.592 28.202-21.592h30.783c13.169 0 24.766 8.879 28.202 21.591 2.452 9.072 10.728 15.409 20.125 15.409h2.781c8.801 0 16.105 6.53 17.322 15h-167.643c1.217-8.469 8.521-15 17.322-15z"/><circle cx="54.5" cy="392.484" r="10"/><circle cx="415.5" cy="243.484" r="10"/><circle cx="59.5" cy="264.484" r="10"/></g></g></svg>