<svg id="Capa_1" enable-background="new 0 0 512 512" height="512" viewBox="0 0 512 512" width="512" xmlns="http://www.w3.org/2000/svg"><g><g><path d="m380.242 101.543c-31.063 0-31.063 12.024-62.126 12.024-31.062 0-31.062-12.024-62.124-12.024-31.061 0-31.061 12.024-62.121 12.024-31.062 0-31.062-12.024-62.124-12.024s-31.062 12.024-62.125 12.024c-31.061 0-31.061-12.024-62.122-12.024v291.456c0 5.523 4.477 76.631 10 76.631h467c5.523 0 10-4.477 10-10v-348.087c-14.823 0-12.573-7.262-20-4.399-8.137 3.137-15.887 6.423-32.129 6.423-31.065 0-31.065-12.024-62.129-12.024z" fill="#8ac9fe"/><path d="m474.5 466.63c0 5.523-4.477 11-10 11h20c5.523 0 10-4.477 10-10l10-63.331v-302.756c-14.823 0-22.573 2.738-30 5.601z" fill="#60b7ff"/><path d="m122.388 166.425c.907-1.571 3.175-1.571 4.082 0l11.796 20.431 11.796 20.43c.907 1.571-.227 3.535-2.041 3.535h-23.591-23.591c-1.814 0-2.948-1.964-2.041-3.535l11.796-20.43z" fill="#deecf1"/><path d="m447.393 331.932c1.571.907 1.571 3.175 0 4.082l-20.431 11.796-20.431 11.796c-1.571.907-3.535-.227-3.535-2.041v-23.591-23.591c0-1.814 1.964-2.948 3.535-2.041l20.431 11.796z" fill="#deecf1"/><path d="m17.5 479.63h467c5.523 0 10-4.477 10-10v-65.331h-106.466l-220.57 11.301-159.964-22.601v76.631c0 5.523 4.477 10 10 10z" fill="#b87d72"/><path d="m504.5 469.63v-65.331h-30v65.331c0 5.523-4.477 10-10 10h30c5.523 0 10-4.477 10-10z" fill="#ab695d"/><path d="m108.584 282.406-33.168-33.168c-1.953-1.953-5.118-1.953-7.071 0l-4.111 4.111c-1.953 1.953-1.953 5.118 0 7.071l33.168 33.168c-3.741 10.345-1.47 22.374 6.822 30.667l46.781 46.781c1.953 1.953 5.118 1.953 7.071 0l27.956-27.956c1.953-1.953 1.953-5.118 0-7.071l-46.781-46.781c-8.292-8.292-20.322-10.563-30.667-6.822z" fill="#fff0ad"/><path d="m114.948 276.042-33.168-33.168c-1.953-1.953-5.118-1.953-7.071 0l-8.485 8.485c1.953-1.953 5.118-1.953 7.071 0l30.991 30.991c1.255 1.255 3.078 1.812 4.796 1.368 9.706-2.511 20.447.03 28.049 7.632l46.781 46.781c1.953 1.953 1.953 5.118 0 7.071l8.485-8.485c1.953-1.953 1.953-5.118 0-7.071l-46.781-46.781c-8.293-8.293-20.323-10.564-30.668-6.823z" fill="#ffe177"/><path d="m231.804 275.577c-1.953 1.953-1.953 5.118 0 7.071l54.57 54.57c1.953 1.953 5.118 1.953 7.071 0l98.693-98.693c1.953-1.953 1.953-5.118 0-7.071l-5.284-5.284c-1.953-1.953-5.118-1.953-7.071 0l-30.048 30.048c-1.953 1.953-5.118 1.953-7.071 0l-22.788-22.788c-1.953-1.953-1.953-5.118 0-7.071l30.048-30.048c1.953-1.953 1.953-5.118 0-7.071l-12.355-12.355c-1.953-1.953-5.118-1.953-7.071 0z" fill="#deecf1"/><g><path d="m399.209 238.525-12.355-12.355c-.311-.311-.659-.554-1.022-.766 1.12 1.915.876 4.408-.766 6.049l-98.693 98.693c-1.953 1.953-5.118 1.953-7.071 0l14.142 14.142c1.953 1.953 5.118 1.953 7.071 0l98.693-98.693c1.953-1.952 1.953-5.118.001-7.07z" fill="#cfe1e5"/></g><path d="m236.976 72.66-33.168-33.169c-1.953-1.953-5.118-1.953-7.071 0l-4.818 4.818c-1.953 1.953-1.953 5.118 0 7.071l33.169 33.168c-2.642 7.307-2.285 15.455 1.075 22.532 1.397 2.942 3.313 2.7 5.748 5.135l46.781 46.781c1.953 1.953 5.118 1.953 7.071 0l26.663-25.663c1.953-1.953 1.953-5.118 0-7.071l-44.781-46.781c-8.294-8.292-20.324-10.562-30.669-6.821z" fill="#c9f6b0"/><path d="m236.976 72.66-33.168-33.169c-1.953-1.953-5.118-1.953-7.071 0l-4.818 4.818c-1.953 1.953-1.953 5.118 0 7.071l33.169 33.168c-3.741 10.345-1.47 22.374 6.822 30.667l46.781 46.781c1.953 1.953 5.118 1.953 7.071 0l28.663-28.663c1.953-1.953 1.953-5.118 0-7.071l-46.781-46.781c-8.293-8.292-20.323-10.562-30.668-6.821z" fill="#c9f6b0"/><path d="m226.176 107.074c1.397 2.943 3.298 5.706 5.734 8.142l46.781 46.781c1.953 1.953 5.118 1.953 7.071 0l28.663-28.663c1.953-1.953 1.953-5.118 0-7.071l-14.526-14.526c-14.723-3.364-20.493-10.194-43.907-10.194-14.702 0-22.444 2.694-29.816 5.531z" fill="#bbec6c"/><path d="m313.596 126.091-21.726-16.726-27.055-27.055c-7.602-7.602-18.343-10.143-28.049-7.632-1.718.444-3.541-.113-4.796-1.368l-30.99-30.99c-1.953-1.953-5.118-1.953-7.071 0l8.485-8.485c1.953-1.953 5.118-1.953 7.071 0l33.168 33.169c10.345-3.741 22.374-1.47 30.667 6.822l39.617 39.618 5.164 7.163c1.953 1.953 1.953 5.118 0 7.071z" fill="#bbec6c"/><path d="m291.87 109.366 19.726 19.726c1.953 1.953 1.953 5.118 0 7.071l8.485-8.485c1.953-1.953 1.953-5.118 0-7.071l-7.163-7.164c-9.353-.455-15.566-2.125-21.048-4.077z" fill="#a2e62e"/></g><g><path d="m100.838 218.319h47.183c3.511 0 6.781-1.889 8.536-4.928 1.755-3.04 1.755-6.817 0-9.857l-23.59-40.858c-1.754-3.041-5.024-4.931-8.535-4.932-.001 0-.002 0-.003 0-3.51 0-6.781 1.889-8.536 4.929l-23.591 40.861c-1.755 3.04-1.755 6.817 0 9.857 1.755 3.039 5.025 4.928 8.536 4.928zm23.591-40.432 14.684 25.432h-29.366z"/><path d="m395.497 310.379v47.183c0 3.51 1.889 6.781 4.929 8.536 1.52.877 3.224 1.316 4.928 1.316 1.705 0 3.409-.439 4.929-1.316l40.861-23.591c3.04-1.755 4.929-5.026 4.929-8.536s-1.889-6.781-4.929-8.536l-40.861-23.591c-3.038-1.755-6.816-1.755-9.856 0-3.041 1.754-4.93 5.025-4.93 8.535zm15 8.908 25.432 14.683-25.432 14.683z"/><path d="m98.921 329.555 46.781 46.78c2.36 2.361 5.5 3.662 8.839 3.662s6.478-1.3 8.84-3.661l34.319-34.32c4.872-4.874 4.872-12.803 0-17.677l-46.781-46.781c-8.866-8.867-21.697-12.527-33.777-9.932l-30.058-30.059c-2.361-2.361-5.501-3.662-8.84-3.662-3.34 0-6.479 1.301-8.839 3.662l-10.474 10.474c-2.361 2.361-3.662 5.5-3.662 8.839s1.301 6.478 3.661 8.839l30.059 30.059c-2.594 12.082 1.066 24.911 9.932 33.777zm-27.615-72.674 6.938-6.939 31.4 31.401c2.057 2.058 5.119 2.737 7.854 1.75 7.913-2.862 16.869-.871 22.812 5.072l45.014 45.013-30.784 30.784-45.013-45.013c-5.944-5.944-7.936-14.898-5.073-22.813.989-2.736.308-5.797-1.749-7.854z"/><path d="m326.946 229.891 28.28-28.28c2.36-2.361 3.661-5.5 3.661-8.839s-1.301-6.479-3.661-8.839l-12.355-12.356c-2.361-2.36-5.5-3.66-8.839-3.66s-6.478 1.3-8.839 3.661l-45.851 45.851c-2.929 2.929-2.929 7.678 0 10.606 2.93 2.929 7.678 2.929 10.607 0l44.082-44.083 8.819 8.82-28.28 28.281c-4.872 4.874-4.872 12.803 0 17.677l22.789 22.789c2.361 2.361 5.5 3.661 8.839 3.661s6.479-1.3 8.839-3.661l28.28-28.28 8.819 8.82-95.157 95.157-58.104-58.105 27.955-27.955c2.929-2.929 2.929-7.678 0-10.606-2.93-2.929-7.678-2.929-10.607 0l-29.722 29.722c-2.361 2.361-3.662 5.5-3.662 8.84 0 3.339 1.301 6.478 3.661 8.838l61.641 61.64c2.36 2.361 5.5 3.662 8.839 3.662s6.479-1.3 8.839-3.661l98.693-98.693c4.873-4.873 4.873-12.803-.001-17.677l-12.354-12.355c-2.36-2.361-5.5-3.662-8.839-3.662s-6.478 1.3-8.84 3.661l-28.279 28.28z"/><path d="m504.5 94.04c-15.597 0-24.036 2.764-32.697 6.102l-1.074.415c-7.315 2.832-14.226 5.506-28.357 5.506s-21.042-2.675-28.358-5.506c-3.811-1.476-7.754-3.001-12.681-4.217-4.023-.992-8.087 1.463-9.078 5.485-.992 4.022 1.463 8.086 5.484 9.079 3.998.986 7.331 2.276 10.86 3.643 7.893 3.055 16.839 6.518 33.772 6.518s25.879-3.463 33.772-6.518l1.054-.408c4.987-1.922 10.509-4.051 19.803-4.81v287.468h-108.966c-.128 0-.256.003-.384.01l-219.85 11.263-59.766-8.444c-4.09-.581-7.896 2.275-8.475 6.377-.58 4.102 2.275 7.896 6.377 8.476l60.478 8.545c.348.049.698.074 1.049.074.128 0 .256-.003.384-.01l220.379-11.291h108.774v57.831c0 1.378-1.121 2.5-2.5 2.5h-477c-1.379 0-2.5-1.122-2.5-2.5v-67.998l59.845 8.456c.355.05.709.075 1.059.075 3.677 0 6.888-2.706 7.416-6.452.58-4.102-2.275-7.896-6.377-8.476l-61.943-8.752v-277.155c9.339.763 14.965 2.94 20.853 5.22 7.893 3.055 16.838 6.518 33.77 6.518 16.933 0 25.878-3.463 33.77-6.518 7.315-2.832 14.225-5.506 28.354-5.506 14.131 0 21.04 2.675 28.355 5.506 7.892 3.055 16.837 6.518 33.769 6.518 13.734 0 22.212-2.279 29.137-4.77 1.087 1.482 2.278 2.9 3.599 4.222l46.782 46.783c2.436 2.435 5.637 3.653 8.837 3.653 3.201 0 6.401-1.218 8.838-3.653.001 0 .001-.001.002-.001l34.319-34.32c3.354-3.355 4.398-8.157 3.135-12.414 10.537-1.064 17.274-3.658 23.367-6.016 4.891-1.893 9.51-3.681 16.084-4.676 4.096-.62 6.913-4.442 6.294-8.538-.62-4.095-4.432-6.914-8.538-6.293-8.206 1.241-13.823 3.415-19.255 5.518-7.315 2.832-14.225 5.506-28.355 5.506-.685 0-1.339-.012-1.991-.024l-37.522-37.521c-8.865-8.866-21.697-12.526-33.777-9.932l-30.059-30.06c-4.873-4.872-12.803-4.872-17.678.001l-10.474 10.474c-2.361 2.361-3.662 5.5-3.662 8.839s1.301 6.479 3.661 8.839l30.059 30.059c-1.132 5.271-1.072 10.684.091 15.849-5.708 1.959-12.253 3.476-22.894 3.476-14.13 0-21.039-2.674-28.355-5.506-7.892-3.055-16.837-6.517-33.77-6.517-16.932 0-25.877 3.462-33.769 6.517-7.315 2.832-14.225 5.506-28.355 5.506s-21.039-2.675-28.354-5.506c-7.892-3.057-16.836-6.519-33.768-6.519-4.143 0-7.5 3.358-7.5 7.5v368.087c0 9.649 7.851 17.5 17.5 17.5h477c9.649 0 17.5-7.851 17.5-17.5v-368.087c0-4.142-3.357-7.5-7.5-7.5zm-222.273 60.883-43.949-43.949c4.609-1.156 10.112-1.934 17.713-1.934 14.13 0 21.04 2.675 28.356 5.506 6.452 2.498 13.614 5.265 25.264 6.193l3.399 3.399zm-83.237-107.081 6.939-6.939 31.399 31.401c2.058 2.058 5.12 2.738 7.854 1.75 7.917-2.861 16.871-.871 22.814 5.072l21.223 21.224c-7.763-3.002-16.679-6.309-33.229-6.309-11.093 0-18.747 1.489-24.934 3.373-.463-3.421-.131-6.962 1.082-10.317.989-2.736.308-5.796-1.749-7.853z"/></g></g></svg>