<svg id="Capa_1" enable-background="new 0 0 512 512" height="512" viewBox="0 0 512 512" width="512" xmlns="http://www.w3.org/2000/svg"><g><g><path clip-rule="evenodd" d="m411.936 256.724 48.93 30.066c11.898 7.329 55.31 39.234 33.242-45.754-13.486-51.996-60.883-85.741-106.135-74.121-7.496 34.358-1.951 65.873 23.963 89.809z" fill="#ccf49f" fill-rule="evenodd"/></g><g><path clip-rule="evenodd" d="m188.938 114.808c50.211 10.784 92.872 11.703 134.111 0 .669-5.099 1.003-10.31 1.003-15.66 0-50.631-30.483-91.648-68.044-91.648-37.589 0-68.044 41.017-68.044 91.648-.001 5.35.333 10.561.974 15.66z" fill="#ccf49f" fill-rule="evenodd"/></g><g><path clip-rule="evenodd" d="m100.051 256.724c1.895 45.42 5.601 86.354 16.858 119.624.529 1.616 1.087 3.204 1.672 4.765l32.936-27.67 43.803-36.782v-35.026-35.054l4.124-2.369-63.503-53.835-17.387-14.768c-12.791 22.181-19.84 49.182-18.503 81.115z" fill="#ffbc85" fill-rule="evenodd"/></g><g><path clip-rule="evenodd" d="m135.94 190.378 63.503 53.835 26.22-15.159 30.344-17.499v-20.732-91.675c-23.072 1.31-46.087 6.52-67.069 15.66-25.969 11.313-48.846 28.645-64.924 52.108-1.923 2.814-3.734 5.712-5.461 8.694z" fill="#ffbc85" fill-rule="evenodd"/></g><g><path clip-rule="evenodd" d="m195.319 246.582v35.054 35.026l30.344 17.527 30.344 17.499 30.345-17.499 30.344-17.527v-35.026-35.054l-30.344-17.527-30.345-17.5-30.344 17.5-26.22 15.158z" fill="#ffbc85" fill-rule="evenodd"/></g><g><path clip-rule="evenodd" d="m118.581 381.114c11.006 29.843 28.644 53.111 57.345 67.322 10.867 5.378 23.322 9.446 37.617 12.093 12.65 2.341 26.75 3.567 42.465 3.567v-77.883-34.525l-30.344-17.499-30.344-17.527-43.803 36.782z" fill="#ffbc85" fill-rule="evenodd"/></g><g><path clip-rule="evenodd" d="m256.007 386.213v77.883c15.688 0 29.787-1.226 42.437-3.567 14.294-2.647 26.75-6.715 37.617-12.093 28.7-14.211 46.338-37.478 57.345-67.322l-32.936-27.67-43.775-36.782-30.344 17.527-30.344 17.499z" fill="#ffbc85" fill-rule="evenodd"/></g><g><path clip-rule="evenodd" d="m286.352 229.055 30.344 17.527v1.087l62.611-52.581 16.997-14.295c-2.536-4.849-5.294-9.474-8.331-13.877-16.05-23.462-38.954-40.794-64.924-52.108-20.982-9.14-43.998-14.35-67.041-15.66v91.676 20.732z" fill="#ffbc85" fill-rule="evenodd"/></g><g><path clip-rule="evenodd" d="m316.696 281.636v35.026l43.775 36.782 32.936 27.67c.585-1.56 1.142-3.149 1.7-4.765 11.229-33.271 14.935-74.204 16.83-119.624 1.226-29.481-4.681-54.755-15.632-75.932l-16.997 14.295-62.611 52.581v33.967z" fill="#ffbc85" fill-rule="evenodd"/></g><g><path clip-rule="evenodd" d="m17.88 241.036c-22.041 84.988 21.372 53.083 33.242 45.754l48.93-30.066c-1.337-31.933 5.712-58.934 18.502-81.115 1.728-2.982 3.539-5.879 5.461-8.694-45.252-11.619-92.649 22.125-106.135 74.121z" fill="#ccf49f" fill-rule="evenodd"/></g><g><path clip-rule="evenodd" d="m85.868 431.243c-24.158 93.125 23.406 58.182 36.446 50.157l53.611-32.964c-12.009-25.441-17.276-57.708-59.016-72.087-14.294 14.295-25.384 33.131-31.041 54.894z" fill="#ccf49f" fill-rule="evenodd"/></g><g><path clip-rule="evenodd" d="m213.542 460.529c2.786 14.211 9.418 26.305 18.279 34.19 6.938 6.186 15.242 9.781 24.186 9.781 8.917 0 17.248-3.595 24.158-9.781 8.889-7.886 15.493-19.979 18.279-34.19-25.662-18.447-57.873-19.004-84.902 0z" fill="#b3e59f" fill-rule="evenodd"/></g><g><path clip-rule="evenodd" d="m336.061 448.436 53.639 32.964c13.013 8.025 60.577 42.968 36.419-50.157-5.656-21.763-16.719-40.599-31.013-54.894-47.258 13.375-52.274 45.058-59.045 72.087z" fill="#ccf49f" fill-rule="evenodd"/></g><g><path clip-rule="evenodd" d="m13.421 261.322c-10.003 59.13 26.889 32.128 37.7 25.469l48.93-30.066c-.446-10.617.056-20.648 1.337-30.178l-50.266 30.763c-8.165 5.015-31.208 21.651-37.701 4.012z" fill="#b3e59f" fill-rule="evenodd"/></g><g><path clip-rule="evenodd" d="m389.7 481.4c11.703 7.217 51.465 36.308 41.601-26.026-6.632 20.843-32.518 2.146-41.601-3.455l-30.539-18.753c-6.771 5.852-14.434 10.979-23.099 15.27z" fill="#b3e59f" fill-rule="evenodd"/></g><g><path clip-rule="evenodd" d="m80.686 455.374c-9.864 62.334 29.898 33.243 41.629 26.026l53.611-32.964c-8.666-4.291-16.328-9.418-23.099-15.27l-30.511 18.753c-9.085 5.601-34.999 24.298-41.63 3.455z" fill="#b3e59f" fill-rule="evenodd"/></g><g><path clip-rule="evenodd" d="m498.566 261.322c10.003 59.13-26.889 32.128-37.7 25.469l-48.93-30.066c.446-10.617-.028-20.648-1.337-30.178l50.267 30.763c8.163 5.015 31.235 21.651 37.7 4.012z" fill="#b3e59f" fill-rule="evenodd"/></g><g><path clip-rule="evenodd" d="m188.938 114.808c20.982-9.14 43.998-14.35 67.069-15.66 23.044 1.31 46.06 6.52 67.041 15.66.669-5.099 1.003-10.31 1.003-15.66 0-5.322-.334-10.561-1.003-15.632-21.344-7.942-44.165-12.567-67.041-13.849-22.877 1.282-45.725 5.907-67.069 13.849-.641 5.071-.975 10.31-.975 15.632 0 5.35.334 10.561.975 15.66z" fill="#b3e59f" fill-rule="evenodd"/></g><g><path clip-rule="evenodd" d="m100.051 256.724c1.895 45.42 5.601 86.354 16.858 119.624.529 1.616 1.087 3.204 1.672 4.765l16.133-13.57c-.864-1.254-1.728-2.536-2.564-3.845-5.378-8.471-9.864-17.806-13.57-27.865-.585-1.588-1.142-3.149-1.672-4.765-7.886-23.267-12.037-50.296-14.489-79.973-.585-6.883-1.059-13.933-1.449-21.094-.975 8.5-1.309 17.389-.919 26.723z" fill="#f5a96c" fill-rule="evenodd"/></g><g><path clip-rule="evenodd" d="m411.936 256.724c.39-9.335.056-18.224-.892-26.723.947 8.5 1.282 17.389.892 26.723zm-2.341-5.628c-2.452 29.676-6.632 56.705-14.489 79.973-.557 1.616-1.115 3.177-1.7 4.765-3.706 10.059-8.164 19.394-13.57 27.865-.836 1.31-1.672 2.591-2.564 3.845l16.133 13.57c.585-1.56 1.142-3.149 1.7-4.765 11.229-33.271 14.935-74.204 16.83-119.624.39-9.335.056-18.224-.892-26.723-.417 7.161-.891 14.211-1.448 21.094z" fill="#f5a96c" fill-rule="evenodd"/></g><g><path clip-rule="evenodd" d="m256.007 418.815v45.281c15.688 0 29.787-1.226 42.437-3.567 14.294-2.647 26.75-6.715 37.617-12.093 8.666-4.291 16.328-9.418 23.099-15.27 15.66-13.598 26.555-31.209 34.245-52.052l-16.133-13.57c-10.282 14.88-23.685 26.945-41.211 35.611-5.573 2.759-11.536 5.155-17.972 7.217-6.13 1.951-12.678 3.595-19.644 4.876-1.421.251-2.87.502-4.319.752-11.508 1.84-24.187 2.815-38.119 2.815z" fill="#f5a96c" fill-rule="evenodd"/></g><g><path clip-rule="evenodd" d="m175.926 448.436c10.867 5.378 23.322 9.446 37.617 12.093 12.65 2.341 26.75 3.567 42.465 3.567v-45.281c-13.932 0-26.61-.975-38.146-2.814-1.449-.251-2.898-.502-4.319-.752-6.966-1.282-13.514-2.926-19.644-4.876-6.437-2.062-12.4-4.458-17.972-7.217-17.527-8.666-30.929-20.732-41.211-35.611l-16.133 13.57c7.691 20.843 18.585 38.454 34.245 52.052 6.769 5.85 14.432 10.977 23.098 15.269z" fill="#f5a96c" fill-rule="evenodd"/></g><g><path d="m228.004 50.045h-.111c-4.142 0-7.5 3.358-7.5 7.5s3.358 7.5 7.5 7.5h.111c4.142 0 7.5-3.358 7.5-7.5s-3.358-7.5-7.5-7.5z"/><path d="m285.376 65.045h.111c4.143 0 7.5-3.358 7.5-7.5s-3.357-7.5-7.5-7.5h-.111c-4.143 0-7.5 3.358-7.5 7.5s3.358 7.5 7.5 7.5z"/><path d="m501.367 239.154c-14.122-54.447-62.802-89.563-110.165-80.63-5.939-8.034-12.777-15.523-20.514-22.4-11.626-10.334-24.989-19.047-39.625-25.965.315-3.718.488-7.405.488-11.011 0-26.083-7.605-50.688-21.416-69.282-14.302-19.26-33.525-29.866-54.127-29.866-20.613 0-39.84 10.607-54.14 29.866-13.803 18.591-21.405 43.196-21.405 69.282 0 3.706.169 7.422.476 11.107-8.207 3.86-16.011 8.251-23.265 13.169-3.429 2.324-4.324 6.988-2 10.417 2.324 3.428 6.988 4.323 10.417 2 23.01-15.6 52.021-25.611 82.417-28.577v99.961l-55.327 31.932-68.939-58.478c4.847-8.612 10.733-16.675 17.653-24.166 2.811-3.042 2.623-7.787-.419-10.598s-7.787-2.623-10.598.419c-3.604 3.901-6.948 7.975-10.057 12.197-47.38-8.959-96.076 26.163-110.201 80.624-9.33 35.976-8.524 55.626 2.613 63.716 3.326 2.416 7.026 3.38 10.845 3.38 10.476 0 21.843-7.255 28.811-11.703.808-.516 40.269-24.783 40.269-24.783 2.103 40.693 6.058 75.537 15.201 104.664-14.081 15.196-24.331 34.086-29.75 54.933-10.14 39.088-9.345 60.387 2.579 69.058 3.504 2.548 7.419 3.567 11.476 3.567 11.262-.001 23.603-7.858 31.158-12.668.902-.574 52.575-32.366 52.575-32.366 9.424 4.289 19.707 7.609 30.934 10.002 7.024 26.763 26.496 45.045 48.677 45.045 22.193 0 41.654-18.28 48.653-45.045 11.228-2.393 21.511-5.713 30.936-10.002 0 0 51.672 31.776 52.562 32.345 7.556 4.818 19.896 12.69 31.165 12.689 4.053 0 7.969-1.019 11.471-3.564 11.928-8.669 12.725-29.969 2.582-69.066-5.427-20.88-15.679-39.773-29.754-54.939 9.141-29.13 13.109-63.95 15.211-104.645l10.016 6.159c1.225.753 2.582 1.112 3.922 1.112 2.519 0 4.979-1.269 6.396-3.572 2.17-3.528 1.068-8.147-2.46-10.317l-17.146-10.544c.558-29.84-6.03-56.925-19.318-80.215 37.661-3.383 75.108 26.2 86.605 70.527 10.63 40.939 3.911 47.23 3.11 47.812-1.902 1.381-7.395.978-22.766-8.818-.891-.567-1.695-1.08-2.395-1.51-3.526-2.171-8.146-1.074-10.319 2.453s-1.074 8.146 2.452 10.319c.644.396 1.382.867 2.2 1.389 6.969 4.44 18.332 11.684 28.802 11.683 3.82 0 7.523-.965 10.848-3.383 11.128-8.096 11.926-27.745 2.586-63.714zm-114.427-60.291-70.279 59.039-53.154-30.678v-99.983c50.008 4.785 98.388 28.13 123.433 71.622zm-140.112-86.523c-17.764 1.755-35.102 5.776-51.248 11.773-.069-1.654-.117-3.31-.117-4.965 0-46.399 27.16-84.148 60.545-84.148 33.384 0 60.544 37.749 60.544 84.148 0 1.618-.048 3.236-.117 4.857-14.569-5.418-30.14-9.186-46.332-11.138-11.776-2.117-20.367-.814-23.275-.527zm-44.009 158.571 53.188-30.698 53.188 30.698v61.422l-53.188 30.698-53.188-30.698zm-110.385 1.691s-46.737 28.74-47.616 29.301c-15.366 9.808-20.862 10.216-22.77 8.831-.802-.583-7.526-6.872 3.091-47.814 11.505-44.355 48.994-73.949 86.68-70.519-1.1 1.934-2.172 3.885-3.181 5.871-.391.567-.686 1.174-.903 1.801-10.572 21.564-15.781 46.063-15.301 72.529zm15.111 3.809c-.948-22.663 2.395-43.312 9.955-61.782l70.319 59.649v58.889l-65.783 55.251c-9.703-31.644-12.732-69.992-14.491-112.007zm8.219 220.253c-13.793 8.782-22.46 12.02-25.754 9.623-1.5-1.09-8.396-8.778 3.117-53.157 4.105-15.794 11.328-30.291 21.102-42.535 2.678 6.409 5.683 12.498 9.064 18.268 9.853 16.815 22.311 29.944 37.86 39.852.001-.001-44.414 27.328-45.389 27.949zm11.639-93.166 68.717-57.714 52.388 30.235v100.464c-68.751-1.858-103.246-29.497-121.105-72.985zm128.605 113.502c-13.533 0-25.792-10.796-32.068-27.276 9.994 1.241 20.652 1.871 32.068 1.871 11.409 0 22.062-.63 32.051-1.87-6.259 16.48-18.511 27.275-32.051 27.275zm7.499-40.516v-100.464l52.387-30.235 68.69 57.713c-17.86 43.483-52.341 71.127-121.077 72.986zm155.352-23.358c11.515 44.388 4.618 52.072 3.118 53.162-3.301 2.397-11.963-.844-25.752-9.638-.962-.614-45.384-27.935-45.384-27.935 15.548-9.908 28.004-23.038 37.855-39.854 3.382-5.772 6.381-11.87 9.059-18.281 9.768 12.226 16.992 26.727 21.104 42.546zm-14.416-176.715c-1.76 42.014-4.789 80.363-14.493 112.004l-65.754-55.247v-62.005l69.602-58.47c7.7 18.231 11.662 39.435 10.645 63.718z"/></g></g></svg>